<svg width="24" height="24" viewBox="0 0 24 24" fill="none" xmlns="http://www.w3.org/2000/svg">
<path d="M4 19.5C4 17.567 5.567 16 7.5 16H16.5C18.433 16 20 17.567 20 19.5V21H4V19.5Z" stroke="#D3D3D3" stroke-width="2" stroke-linecap="round" stroke-linejoin="round"/>
<path d="M4 6H20V16H4V6Z" stroke="#D3D3D3" stroke-width="2" stroke-linejoin="round"/>
<path d="M4 6C4 4.89543 4.89543 4 6 4H18C19.1046 4 20 4.89543 20 6V6C20 7.10457 19.1046 8 18 8H6C4.89543 8 4 7.10457 4 6V6Z" stroke="#D3D3D3" stroke-width="2"/>
<line x1="7" y1="11" x2="17" y2="11" stroke="#D3D3D3" stroke-width="2" stroke-linecap="round"/>
</svg>
