<svg width="24" height="24" viewBox="0 0 24 24" fill="none" xmlns="http://www.w3.org/2000/svg">
<path d="M21 11.5C21 16.7467 16.7467 21 11.5 21C6.25329 21 2 16.7467 2 11.5C2 6.25329 6.25329 2 11.5 2C13.1003 2 14.6025 2.40056 15.9398 3.09089M15.9398 3.09089L18 2M15.9398 3.09089C15.5198 3.30953 15.1307 3.56954 14.7791 3.86681" stroke="#D3D3D3" stroke-width="2" stroke-linecap="round" stroke-linejoin="round"/>
<path d="M18 8C18 9.10457 17.1046 10 16 10C14.8954 10 14 9.10457 14 8C14 6.89543 14.8954 6 16 6C17.1046 6 18 6.89543 18 8Z" stroke="#D3D3D3" stroke-width="2"/>
<path d="M9 14C9 15.1046 8.10457 16 7 16C5.89543 16 5 15.1046 5 14C5 12.8954 5.89543 12 7 12C8.10457 12 9 12.8954 9 14Z" stroke="#D3D3D3" stroke-width="2"/>
<path d="M15 15C15 16.1046 14.1046 17 13 17C11.8954 17 11 16.1046 11 15C11 13.8954 11.8954 13 13 13C14.1046 13 15 13.8954 15 15Z" stroke="#D3D3D3" stroke-width="2"/>
</svg>
